<mxfile host="Electron" modified="2024-03-18T19:03:13.608Z" agent="Mozilla/5.0 (Macintosh; Intel Mac OS X 10_15_7) AppleWebKit/537.36 (KHTML, like Gecko) draw.io/24.0.4 Chrome/120.0.6099.109 Electron/28.1.0 Safari/537.36" etag="v5zx_jrsMJPHNEHOKfiX" version="24.0.4" type="device">
  <diagram name="Page-1" id="dE2fQKRCQuPPxRZ_kqba">
    <mxGraphModel dx="954" dy="727" grid="1" gridSize="10" guides="1" tooltips="1" connect="1" arrows="1" fold="1" page="1" pageScale="1" pageWidth="827" pageHeight="1169" math="0" shadow="0">
      <root>
        <mxCell id="0" />
        <mxCell id="1" parent="0" />
        <mxCell id="NjmewZzflT4duyzhKeTO-14" style="edgeStyle=orthogonalEdgeStyle;rounded=0;orthogonalLoop=1;jettySize=auto;html=1;exitX=0.5;exitY=1;exitDx=0;exitDy=0;entryX=0.5;entryY=0;entryDx=0;entryDy=0;" edge="1" parent="1" source="NjmewZzflT4duyzhKeTO-1" target="NjmewZzflT4duyzhKeTO-3">
          <mxGeometry relative="1" as="geometry" />
        </mxCell>
        <mxCell id="NjmewZzflT4duyzhKeTO-22" style="edgeStyle=orthogonalEdgeStyle;rounded=0;orthogonalLoop=1;jettySize=auto;html=1;exitX=0;exitY=0.5;exitDx=0;exitDy=0;entryX=0.5;entryY=0;entryDx=0;entryDy=0;" edge="1" parent="1" source="NjmewZzflT4duyzhKeTO-1" target="NjmewZzflT4duyzhKeTO-2">
          <mxGeometry relative="1" as="geometry" />
        </mxCell>
        <mxCell id="NjmewZzflT4duyzhKeTO-23" style="edgeStyle=orthogonalEdgeStyle;rounded=0;orthogonalLoop=1;jettySize=auto;html=1;entryX=0.5;entryY=0;entryDx=0;entryDy=0;" edge="1" parent="1" source="NjmewZzflT4duyzhKeTO-1" target="NjmewZzflT4duyzhKeTO-4">
          <mxGeometry relative="1" as="geometry" />
        </mxCell>
        <mxCell id="NjmewZzflT4duyzhKeTO-25" style="edgeStyle=orthogonalEdgeStyle;rounded=0;orthogonalLoop=1;jettySize=auto;html=1;entryX=0.5;entryY=0;entryDx=0;entryDy=0;" edge="1" parent="1" source="NjmewZzflT4duyzhKeTO-1" target="NjmewZzflT4duyzhKeTO-11">
          <mxGeometry relative="1" as="geometry">
            <Array as="points">
              <mxPoint x="604" y="130" />
              <mxPoint x="304" y="130" />
            </Array>
          </mxGeometry>
        </mxCell>
        <mxCell id="NjmewZzflT4duyzhKeTO-1" value="Body" style="ellipse;whiteSpace=wrap;html=1;" vertex="1" parent="1">
          <mxGeometry x="544" y="140" width="120" height="50" as="geometry" />
        </mxCell>
        <mxCell id="NjmewZzflT4duyzhKeTO-18" style="edgeStyle=orthogonalEdgeStyle;rounded=0;orthogonalLoop=1;jettySize=auto;html=1;entryX=0.5;entryY=0;entryDx=0;entryDy=0;" edge="1" parent="1" source="NjmewZzflT4duyzhKeTO-2" target="NjmewZzflT4duyzhKeTO-5">
          <mxGeometry relative="1" as="geometry" />
        </mxCell>
        <mxCell id="NjmewZzflT4duyzhKeTO-20" style="edgeStyle=orthogonalEdgeStyle;rounded=0;orthogonalLoop=1;jettySize=auto;html=1;" edge="1" parent="1" source="NjmewZzflT4duyzhKeTO-2" target="NjmewZzflT4duyzhKeTO-7">
          <mxGeometry relative="1" as="geometry" />
        </mxCell>
        <mxCell id="NjmewZzflT4duyzhKeTO-2" value="p" style="ellipse;whiteSpace=wrap;html=1;" vertex="1" parent="1">
          <mxGeometry x="404" y="235" width="120" height="50" as="geometry" />
        </mxCell>
        <mxCell id="NjmewZzflT4duyzhKeTO-17" style="edgeStyle=orthogonalEdgeStyle;rounded=0;orthogonalLoop=1;jettySize=auto;html=1;entryX=0.5;entryY=0;entryDx=0;entryDy=0;" edge="1" parent="1" source="NjmewZzflT4duyzhKeTO-3" target="NjmewZzflT4duyzhKeTO-10">
          <mxGeometry relative="1" as="geometry" />
        </mxCell>
        <mxCell id="NjmewZzflT4duyzhKeTO-3" value="span" style="ellipse;whiteSpace=wrap;html=1;" vertex="1" parent="1">
          <mxGeometry x="544" y="230" width="120" height="50" as="geometry" />
        </mxCell>
        <mxCell id="NjmewZzflT4duyzhKeTO-19" style="edgeStyle=orthogonalEdgeStyle;rounded=0;orthogonalLoop=1;jettySize=auto;html=1;entryX=0.5;entryY=0;entryDx=0;entryDy=0;" edge="1" parent="1" source="NjmewZzflT4duyzhKeTO-4" target="NjmewZzflT4duyzhKeTO-9">
          <mxGeometry relative="1" as="geometry" />
        </mxCell>
        <mxCell id="NjmewZzflT4duyzhKeTO-4" value="img" style="ellipse;whiteSpace=wrap;html=1;" vertex="1" parent="1">
          <mxGeometry x="681" y="230" width="120" height="50" as="geometry" />
        </mxCell>
        <mxCell id="NjmewZzflT4duyzhKeTO-21" style="edgeStyle=orthogonalEdgeStyle;rounded=0;orthogonalLoop=1;jettySize=auto;html=1;" edge="1" parent="1" source="NjmewZzflT4duyzhKeTO-5" target="NjmewZzflT4duyzhKeTO-8">
          <mxGeometry relative="1" as="geometry" />
        </mxCell>
        <mxCell id="NjmewZzflT4duyzhKeTO-5" value="p" style="ellipse;whiteSpace=wrap;html=1;" vertex="1" parent="1">
          <mxGeometry x="404" y="320" width="120" height="50" as="geometry" />
        </mxCell>
        <mxCell id="NjmewZzflT4duyzhKeTO-7" value="&lt;i&gt;font-size: 16&lt;/i&gt;&lt;br&gt;font-weight: bold" style="shape=document;whiteSpace=wrap;html=1;boundedLbl=1;" vertex="1" parent="1">
          <mxGeometry x="240" y="228" width="120" height="65" as="geometry" />
        </mxCell>
        <mxCell id="NjmewZzflT4duyzhKeTO-8" value="&lt;i&gt;font-size: 16&lt;br&gt;font-weight: bold&lt;/i&gt;&lt;br&gt;display: none" style="shape=document;whiteSpace=wrap;html=1;boundedLbl=1;" vertex="1" parent="1">
          <mxGeometry x="240" y="305" width="120" height="80" as="geometry" />
        </mxCell>
        <mxCell id="NjmewZzflT4duyzhKeTO-9" value="&lt;i&gt;font-size: 16&lt;/i&gt;&lt;div&gt;float: right&lt;/div&gt;" style="shape=document;whiteSpace=wrap;html=1;boundedLbl=1;" vertex="1" parent="1">
          <mxGeometry x="681" y="310" width="120" height="60" as="geometry" />
        </mxCell>
        <mxCell id="NjmewZzflT4duyzhKeTO-10" value="&lt;i&gt;font-size: 16&lt;br&gt;&lt;/i&gt;color: red" style="shape=document;whiteSpace=wrap;html=1;boundedLbl=1;" vertex="1" parent="1">
          <mxGeometry x="544" y="310" width="120" height="80" as="geometry" />
        </mxCell>
        <mxCell id="NjmewZzflT4duyzhKeTO-11" value="font-size: 16px" style="shape=document;whiteSpace=wrap;html=1;boundedLbl=1;" vertex="1" parent="1">
          <mxGeometry x="244" y="150" width="120" height="45" as="geometry" />
        </mxCell>
        <mxCell id="NjmewZzflT4duyzhKeTO-31" style="edgeStyle=orthogonalEdgeStyle;rounded=0;orthogonalLoop=1;jettySize=auto;html=1;entryX=0.5;entryY=0;entryDx=0;entryDy=0;" edge="1" parent="1" source="NjmewZzflT4duyzhKeTO-26" target="NjmewZzflT4duyzhKeTO-27">
          <mxGeometry relative="1" as="geometry" />
        </mxCell>
        <mxCell id="NjmewZzflT4duyzhKeTO-26" value="Bytes" style="rounded=0;whiteSpace=wrap;html=1;" vertex="1" parent="1">
          <mxGeometry x="20" y="125" width="120" height="30" as="geometry" />
        </mxCell>
        <mxCell id="NjmewZzflT4duyzhKeTO-32" style="edgeStyle=orthogonalEdgeStyle;rounded=0;orthogonalLoop=1;jettySize=auto;html=1;entryX=0.5;entryY=0;entryDx=0;entryDy=0;" edge="1" parent="1" source="NjmewZzflT4duyzhKeTO-27" target="NjmewZzflT4duyzhKeTO-28">
          <mxGeometry relative="1" as="geometry" />
        </mxCell>
        <mxCell id="NjmewZzflT4duyzhKeTO-27" value="Characters" style="rounded=0;whiteSpace=wrap;html=1;" vertex="1" parent="1">
          <mxGeometry x="20" y="185" width="120" height="30" as="geometry" />
        </mxCell>
        <mxCell id="NjmewZzflT4duyzhKeTO-33" style="edgeStyle=orthogonalEdgeStyle;rounded=0;orthogonalLoop=1;jettySize=auto;html=1;entryX=0.5;entryY=0;entryDx=0;entryDy=0;" edge="1" parent="1" source="NjmewZzflT4duyzhKeTO-28" target="NjmewZzflT4duyzhKeTO-29">
          <mxGeometry relative="1" as="geometry" />
        </mxCell>
        <mxCell id="NjmewZzflT4duyzhKeTO-28" value="Tokens" style="rounded=0;whiteSpace=wrap;html=1;" vertex="1" parent="1">
          <mxGeometry x="20" y="245" width="120" height="30" as="geometry" />
        </mxCell>
        <mxCell id="NjmewZzflT4duyzhKeTO-34" style="edgeStyle=orthogonalEdgeStyle;rounded=0;orthogonalLoop=1;jettySize=auto;html=1;entryX=0.5;entryY=0;entryDx=0;entryDy=0;" edge="1" parent="1" source="NjmewZzflT4duyzhKeTO-29" target="NjmewZzflT4duyzhKeTO-30">
          <mxGeometry relative="1" as="geometry" />
        </mxCell>
        <mxCell id="NjmewZzflT4duyzhKeTO-29" value="Nodes" style="rounded=0;whiteSpace=wrap;html=1;" vertex="1" parent="1">
          <mxGeometry x="20" y="305" width="120" height="30" as="geometry" />
        </mxCell>
        <mxCell id="NjmewZzflT4duyzhKeTO-30" value="CSS OM" style="rounded=0;whiteSpace=wrap;html=1;" vertex="1" parent="1">
          <mxGeometry x="20" y="365" width="120" height="30" as="geometry" />
        </mxCell>
      </root>
    </mxGraphModel>
  </diagram>
</mxfile>
